<svg xmlns="http://www.w3.org/2000/svg" xmlns:xlink="http://www.w3.org/1999/xlink" width="500" zoomAndPan="magnify" viewBox="0 0 375 374.999991" height="500" preserveAspectRatio="xMidYMid meet" version="1.0"><defs><clipPath id="d11072c372"><path d="M 3 33.734375 L 370.773438 33.734375 L 370.773438 341.234375 L 3 341.234375 Z M 3 33.734375 " clip-rule="nonzero"/></clipPath></defs><g clip-path="url(#d11072c372)"><path fill="#009975" d="M 322.304688 161.449219 C 322.304688 192.542969 300.609375 217.746094 273.851562 217.746094 L 92.40625 217.746094 L 35.269531 341.257812 C 7.054688 328.203125 -4.242188 292.589844 10.042969 261.707031 L 115.488281 33.75 C 143.707031 46.800781 155.003906 82.414062 140.71875 113.296875 L 118.445312 161.449219 Z M 314.46875 271.78125 L 189.871094 271.78125 L 189.871094 328.078125 L 370.765625 328.078125 C 370.765625 296.988281 345.558594 271.78125 314.46875 271.78125 Z M 200.535156 51.117188 C 194.644531 51.117188 189.871094 55.890625 189.871094 61.773438 L 189.871094 107.414062 L 320.714844 107.414062 C 348.359375 107.414062 370.765625 85.007812 370.765625 57.363281 L 370.765625 51.117188 L 200.535156 51.117188 " fill-opacity="1" fill-rule="nonzero"/></g></svg>